<svg xmlns="http://www.w3.org/2000/svg" xmlns:xlink="http://www.w3.org/1999/xlink" viewBox="0 0 130.9 30.6" enable-background="new 0 0 130.9 30.6"><defs><path id="3" d="m-85 392.4h1265v672.1h-1265z"/><path id="4" d="m-85 392.5h1280v368h-1280z"/><path id="5" d="m1215 391.4h1265v672.1h-1265z"/><path id="6" d="m1215 458.6h1280v368h-1280z"/><path id="7" d="m-85 331.6h1280v60h-1280z"/><path id="8" d="m-85-259.4h1280v60h-1280z"/><use id="9" xlink:href="#7"/><path id="A" d="m-20.8 730.7h1153.4v670.7h-1153.4z"/><path id="B" d="m1279.2 729.8h1153.4v670.7h-1153.4z"/><use id="C" xlink:href="#8"/><clipPath><use xlink:href="#B"/></clipPath><clipPath id="G"><use xlink:href="#8"/></clipPath><clipPath><use xlink:href="#A"/></clipPath><clipPath><use xlink:href="#9"/></clipPath><clipPath><use xlink:href="#C"/></clipPath><clipPath id="D"><use xlink:href="#5"/></clipPath><clipPath id="F"><use xlink:href="#3"/></clipPath><clipPath id="E"><use xlink:href="#7"/></clipPath><clipPath><use xlink:href="#4"/></clipPath><clipPath><use xlink:href="#6"/></clipPath></defs><g clip-path="url(#E)"><text transform="translate(188.08 365.95)" fill="#4aa6dd" font-family="&apos;OpenSans-Semibold&apos;" font-size="14">Platform      Customers</text></g><g clip-path="url(#E)"><text transform="translate(342.03 365.95)" fill="#6f7070" font-family="&apos;OpenSans-Semibold&apos;" font-size="14"/></g><g clip-path="url(#E)"><text transform="translate(363.85 365.95)" fill="#4aa6dd" font-family="&apos;OpenSans-Semibold&apos;" font-size="14">About</text></g><g clip-path="url(#E)"><text transform="translate(404.77 365.95)" fill="#6f7070" font-family="&apos;OpenSans-Semibold&apos;" font-size="14"/></g><g clip-path="url(#E)"><text transform="translate(1090.51 365.5)"><tspan x="0" y="0" fill="#4aa6dd" font-family="&apos;Adelle-SemiBoldItalic&apos;" font-size="14">Get in </tspan><tspan x="41.6" y="0" fill="#4aa6dd" font-family="&apos;Adelle-SemiBoldItalic&apos;" font-size="14">t</tspan><tspan x="47" y="0" fill="#4aa6dd" font-family="&apos;Adelle-SemiBoldItalic&apos;" font-size="14">ou</tspan><tspan x="63.5" y="0" fill="#4aa6dd" font-family="&apos;Adelle-SemiBoldItalic&apos;" font-size="14">c</tspan><tspan x="70.3" y="0" fill="#4aa6dd" font-family="&apos;Adelle-SemiBoldItalic&apos;" font-size="14">h</tspan></text></g><g clip-path="url(#E)"><text transform="translate(936.61 365.48)"><tspan x="0" y="0" fill="#969696" font-family="&apos;OpenSans-Semibold&apos;" font-size="13">Login     C</tspan><tspan x="59.2" y="0" fill="#969696" font-family="&apos;OpenSans-Semibold&apos;" font-size="13">o</tspan><tspan x="67.1" y="0" fill="#969696" font-family="&apos;OpenSans-Semibold&apos;" font-size="13">ntact</tspan></text></g><g clip-path="url(#E)"><text transform="translate(1036.22 365.48)" fill="#969696" font-family="&apos;OpenSans-Semibold&apos;" font-size="13"/></g><text transform="translate(187.08 21.945)"><tspan x="0" y="0" fill="#4aa6dd" font-family="&apos;OpenSans-Semibold&apos;" font-size="14">Platform      Customers      </tspan><tspan x="175.8" y="0" fill="#506eb5" font-family="&apos;OpenSans-Semibold&apos;" font-size="14">About </tspan><tspan x="220.3" y="0" fill="#4aa6dd" font-family="&apos;OpenSans-Semibold&apos;" font-size="14"/></text><g fill="#f16322"><path d="m4 27.6c0-.4-.3-.6-.5-.7-.4-.2-1.1-.7-1.2-.7-.2-.1-.4-.2-.7 0-.1 0-.9.5-1.2.7-.2.2-.4.4-.4.8v1.4c0 .4.3.6.5.7.4.2 1.1.7 1.2.7.2.1.4.2.7 0 .1 0 .9-.5 1.2-.7.3-.2.4-.3.4-.7v-1.5"/><path d="m4 21.9c0-.4-.3-.6-.5-.7-.4-.2-1.1-.7-1.2-.7-.2-.1-.4-.2-.7 0-.1 0-.9.5-1.2.7-.2.2-.4.5-.4.9v1.4c0 .4.3.6.5.7.4.2 1.1.7 1.2.7.2.1.4.2.7 0 .1 0 .9-.5 1.2-.7.3-.2.4-.3.4-.7v-1.6"/><path d="m12.1 21.9c0-.4-.3-.6-.5-.7-.4-.2-1.1-.7-1.2-.7-.2-.1-.4-.2-.7 0-.1 0-.9.5-1.2.7-.3.2-.5.4-.5.8v1.4c0 .4.3.6.5.7.4.2 1.1.7 1.2.7.2.1.4.2.7 0 .1 0 .9-.5 1.2-.7.3-.2.5-.3.5-.7v-1.5"/><path d="m12.1 16.4c0-.4-.3-.6-.5-.7-.4-.2-1.1-.7-1.2-.7-.2-.1-.4-.2-.7 0-.1 0-.9.5-1.2.7-.3.2-.5.4-.5.8v1.4c0 .4.3.6.5.7.4.2 1.1.7 1.2.7.2.1.4.2.7 0 .1 0 .9-.5 1.2-.7.3-.2.5-.3.5-.7v-1.5"/><path d="m12.1 1.5c0-.4-.3-.6-.5-.7-.4-.2-1.1-.7-1.2-.7-.2-.1-.4-.2-.7 0-.1 0-.9.5-1.2.7-.3.2-.4.5-.4.9v1.3c0 .4.3.6.5.7.4.2 1.1.7 1.1.7.2.1.4.2.7 0 .1 0 .9-.5 1.2-.7.4-.2.5-.3.5-.7v-1.5"/><path d="m12.1 7.1c0-.4-.3-.6-.5-.7-.4-.2-1.1-.7-1.2-.7-.2-.1-.4-.2-.7 0-.1 0-.9.5-1.2.7-.3.2-.4.4-.4.8v4.6c0 .4.3.6.5.7.4.2 1.1.7 1.2.7.2.1.4.2.7 0 .1 0 .9-.5 1.2-.7.3-.2.5-.3.5-.7v-4.7z"/><path d="m4 16.4c0-.4-.3-.6-.5-.7-.3-.3-1.1-.7-1.1-.7-.2-.1-.4-.2-.7 0-.1 0-.9.5-1.2.7-.3.1-.5.4-.5.8v1.4c0 .4.3.6.5.7.4.2 1.1.7 1.2.7.2.1.4.2.7 0 .1 0 .9-.5 1.2-.7.3-.2.4-.3.4-.7v-1.5"/></g><g fill="#231f20"><path d="m29.2 11.2l-.4-2.2c-.1-.4-.2-.5-.3-.5-.3-.2-1.1-.5-2.4-.5-2.7 0-4 1.2-4 3 0 2.1 1.9 2.8 3.9 3.4 2.6.8 5.5 1.7 5.5 5.5 0 4-3.2 5.5-6.8 5.5-2.4 0-4.6-.6-5.4-1v-4.2h1.7l.5 2.3c.1.3.2.4.5.6.4.1 1.4.4 2.9.4 2.6 0 4.2-1 4.2-3.3 0-2.3-1.8-2.9-3.8-3.5-2.6-.8-5.6-1.4-5.6-5.3 0-3.7 2.9-5.3 6.5-5.3 2.2 0 3.9.6 4.8.9v4.4l-1.8-.2"/><path d="m36.8 21.8c.9.9 2.2 1.7 3.5 1.7 2.5 0 3.4-2 3.4-5.3 0-3.5-1.4-4.6-3-4.6-1.7 0-3.2 1-4 1.6v6.6zm-3.9 8.8v-1.4l1.1-.2c.4-.1.4-.1.4-.5v-14.3c0-.3-.1-.5-.3-.5l-1.5-.5.2-1.4h3.4l.2 1.5h.1c1.4-1.1 2.9-1.8 4.6-1.8 2.9 0 4.9 1.9 4.9 6.4 0 3.9-1.3 7.4-5.4 7.4-1.5 0-2.7-.4-3.9-1.4v4.5c0 .4 0 .5.4.5l2.4.2v1.4h-6.6z"/><path d="m47.3 25.1v-1.4l1.3-.2c.4 0 .4-.1.4-.5v-8.8c0-.3-.1-.5-.3-.5l-1.5-.5.2-1.4h3.4l.3 1.8h.1c.9-1 2.1-2.1 3.9-2.1.6 0 1.4.1 1.9.2v3.9l-1.8-.1-.3-1.8c0-.2-.1-.3-.3-.3-1.2 0-2.5 1.1-3.1 1.6v8c0 .4 0 .5.4.5l2.4.2v1.4h-7"/><path d="m67.7 17.3c-.1-2.9-1.4-3.8-3-3.8-1.7 0-3.2.9-3.4 3.8h6.4m2 7c-1.3.7-2.8 1.2-4.7 1.2-4.7 0-6.2-3.1-6.2-6.9 0-4.7 2.6-6.9 5.9-6.9 3.2 0 5.3 1.7 5.3 6.2 0 .3 0 .9-.1 1.3h-8.7c.1 2.6 1.1 4.4 4 4.4 1.4 0 2.3-.3 3.7-.9l.8 1.6"/><path d="m81.5 14.9c-.8-.6-2.2-1.4-3.5-1.4-2.4 0-3.4 2.1-3.4 5.2 0 3.6 1.2 4.8 3 4.8 1.5 0 2.8-1 3.9-2.1v-6.5m.5 10.2l-.2-1.7h-.1c-1.2 1.1-2.5 2-4.5 2-2.9 0-4.9-1.9-4.9-6.7 0-5.1 2.3-7.2 5.4-7.2 1.6 0 2.9.5 4 1.2v-4.7c0-.3-.1-.4-.3-.5l-1.7-.5.2-1.4h4v17.4c0 .4 0 .5.4.5l1.3.2v1.4h-3.6"/><path d="m86.8 25.1v-1.4l1.7-.2c.4 0 .4-.1.4-.5v-9.1c0-.2 0-.3-.2-.3h-1.9v-1.8h2.1v-2c0-3 1.5-4.5 4.7-4.5 2.1 0 3.9.5 3.9 3.1l-2.2.3c0-1.4-.6-1.6-1.8-1.6-1.9 0-2.3 1-2.3 2.7v1.8c0 .2 0 .3.2.3h4.2v1.8h-4.4v9.3c0 .4 0 .5.4.5l3 .2v1.4h-7.8"/><path d="m105 19.2l-2.9.3c-2.2.2-2.8.9-2.8 2.2 0 1.4.6 2 1.8 2 1.5 0 3.2-1.2 4-2v-2.5zm.5 5.9l-.2-1.7h-.1c-1.2 1.2-2.7 2-4.7 2-3.2 0-3.6-2.2-3.6-3.5 0-2.6 1.6-3.8 4.7-4.1l3.5-.3v-1.4c0-1.9-.4-2.8-2.6-2.8-1.6 0-2.7.1-2.7 2l-2.2-.2c0-3.2 2.9-3.5 5-3.5 3.7 0 4.9 1 4.9 4.6v6.8c0 .4 0 .5.4.5l1.3.2v1.4h-3.7"/><path d="m118.5 15.5l-.3-1.6c0-.2-.1-.3-.3-.3-.4-.1-1.1-.3-2-.3-1.9 0-2.7.8-2.7 1.9 0 1.5 1.6 1.8 3.2 2.2 2 .5 4.2 1.1 4.2 3.9 0 3-2.5 4-5.2 4-2.1 0-4.2-.6-4.7-.9v-3.4l1.7.1.3 1.8c0 .2.1.3.3.4.3.1 1.2.4 2.5.4 1.7 0 2.8-.6 2.8-2 0-1.5-1.5-1.9-3.1-2.3-2-.5-4.3-1-4.3-3.8 0-2.9 2.5-4 5.1-4 1.9 0 3.5.5 4.1.7v3.3l-1.6-.1"/><path d="m130.9 24.6c-1 .4-2.3.8-3.6.8-2.5 0-3.6-1.2-3.6-3.5v-8.1c0-.2 0-.3-.2-.3h-1.9v-1.5c2-.3 2.6-1.1 2.9-3.7h1.5v3.2c0 .2 0 .3.2.3h3.8v1.8h-4v7.6c0 1.6.4 2.2 1.9 2.2.8 0 1.7-.2 2.4-.5l.6 1.7"/></g><text transform="translate(933.61 21.43)" fill="#969696" font-family="&apos;OpenSans-Semibold&apos;" font-size="13">Login     Contact       </text><g clip-path="url(#F)"><text transform="translate(379.04 644.84)"><tspan x="0" y="0" fill="#f26322" font-family="&apos;MarketOT&apos;" font-size="24">Jane Tindler, </tspan><tspan x="115.9" y="0" fill="#f26322" font-family="&apos;OpenSans&apos;" font-size="14">Four Seasons Social Media Manager</tspan><tspan x="350.3" y="0" fill="#f26322" font-family="&apos;OpenSans&apos;" font-size="16"/><tspan x="362.7" y="0" fill="#f26322" font-family="&apos;ProximaNova-Semibold&apos;" font-size="24"/></text><text transform="translate(138.85 523.14)"><tspan x="0" y="0" fill="#f26423" font-family="&apos;Adelle-SemiBold&apos;" font-size="47">Spredfast helped us increase social </tspan><tspan x="-73.5" y="56.4" fill="#f26423" font-family="&apos;Adelle-SemiBold&apos;" font-size="47">engagement and leverage social in a fresh </tspan></text><text transform="translate(104.57 512.89)" fill="#f26322" font-family="&apos;Adelle-SemiBold&apos;" font-size="50">“</text><text transform="matrix(.9344 0 0 1 414.03 1148.41)" fill="#fff" font-family="&apos;Adelle-SemiBoldItalic&apos;" font-size="23.545">Play the Four Seasons Story</text></g><g font-family="&apos;Helvetica&apos;" font-size="14"><text transform="translate(-23.95-66.45)">Navigation - Search open and hover states</text><text transform="translate(-25.95-312.45)">Navigation - Default</text><text transform="translate(-23.643 292.7)">Navigation - Open Option 1</text></g><path transform="matrix(.7071.7071-.7071.7071 240.71 144.81)" fill="#fff" d="m-66.6 361.5h24.2v3h-24.2z" id="0"/><use transform="matrix(0-1 1 0-417.41 308.52)" xlink:href="#0"/><g opacity=".5"><text transform="translate(447.09 22.323)" fill="#6f7070" font-family="&apos;Adelle-SemiBoldItalic&apos;" font-size="14">Search</text></g><path transform="matrix(.7071.7071-.7071.7071 193.33-431.65)" fill="#969696" d="m610.6 16.7h14.3v1.8h-14.3z" id="1"/><use transform="matrix(0-1 1 0 600.17 635.26)" xlink:href="#1"/><text transform="translate(636.9 502.16)"><tspan x="0" y="0" fill="#fff" font-family="&apos;OpenSans-Semibold&apos;" font-size="20">Customers</tspan><tspan x="0" y="20.4" opacity=".7" fill="#fff" font-family="&apos;OpenSans-Italic&apos;" font-size="12">Our customers and case studies</tspan></text><text transform="translate(1.902 504.16)"><tspan x="0" y="0" fill="#fff" font-family="&apos;Adelle-SemiBold&apos;" font-size="32">Conversations </tspan><tspan x="0" y="22.4" opacity=".7" fill="#fff" font-family="&apos;OpenSans-Italic&apos;" font-size="12">Social media management tools</tspan></text><text transform="translate(1.903 452.16)" fill="#fff" font-family="&apos;OpenSans&apos;" font-size="14">SPREDFAST PLATFORM</text><text transform="translate(1.902 587.16)"><tspan x="0" y="0" fill="#fff" font-family="&apos;Adelle-SemiBold&apos;" font-size="32">Experiences </tspan><tspan x="0" y="22.4" opacity=".7" fill="#fff" font-family="&apos;OpenSans-Italic&apos;" font-size="12">Inspire audience engagement everywhere</tspan></text><text transform="translate(306.9 505.16)"><tspan x="0" y="0" fill="#fff" font-family="&apos;Adelle-SemiBold&apos;" font-size="32">Intelligence </tspan><tspan x="0" y="22.4" opacity=".7" fill="#fff" font-family="&apos;OpenSans-Italic&apos;" font-size="12">Unlimited, real-time social data for enterprise</tspan></text><text transform="translate(306.9 588.16)"><tspan x="0" y="0" fill="#fff" font-family="&apos;Adelle-SemiBold&apos;" font-size="32">Promotions </tspan><tspan x="0" y="22.4" opacity=".7" fill="#fff" font-family="&apos;OpenSans-Italic&apos;" font-size="12">Smart social campaign management</tspan></text><text transform="translate(637.9 569.16)"><tspan x="0" y="0" fill="#fff" font-family="&apos;OpenSans-Semibold&apos;" font-size="20">About</tspan><tspan x="0" y="20.4" opacity=".7" fill="#fff" font-family="&apos;OpenSans-Italic&apos;" font-size="12">Our company and team</tspan></text><text transform="translate(636.9 637.16)"><tspan x="0" y="0" fill="#fff" font-family="&apos;OpenSans-Semibold&apos;" font-size="20">Resources</tspan><tspan x="0" y="20.4" opacity=".7" fill="#fff" font-family="&apos;OpenSans-Italic&apos;" font-size="12">Whitepapers, tipsheets and more</tspan></text><text transform="translate(936.4 505.21)"><tspan x="0" y="0" fill="#fff" font-family="&apos;OpenSans-Semibold&apos;" font-size="14">Blog</tspan><tspan x="0" y="33" fill="#fff" font-family="&apos;OpenSans-Semibold&apos;" font-size="14">News</tspan><tspan x="0" y="66" fill="#fff" font-family="&apos;OpenSans-Semibold&apos;" font-size="14">Careers</tspan><tspan x="0" y="99" fill="#fff" font-family="&apos;OpenSans-Semibold&apos;" font-size="14">Contact</tspan></text><text transform="translate(1.902 687.16)"><tspan x="0" y="0" fill="#fff" font-family="&apos;Adelle-Regular&apos;" font-size="20">Partners </tspan><tspan x="0" y="20.4" opacity=".7" fill="#fff" font-family="&apos;OpenSans-Italic&apos;" font-size="12">Brief product description goes here</tspan></text><text transform="translate(305.9 687.16)"><tspan x="0" y="0" fill="#fff" font-family="&apos;Adelle-Regular&apos;" font-size="20">Customer Success </tspan><tspan x="0" y="20.4" opacity=".7" fill="#fff" font-family="&apos;OpenSans-Italic&apos;" font-size="12">Brief product description goes here</tspan></text><text transform="translate(1487.08 369)"><tspan x="0" y="0" fill="#4aa6dd" font-family="&apos;OpenSans-Semibold&apos;" font-size="14">Platform      Customers</tspan><tspan x="153.9" y="0" fill="#6f7070" font-family="&apos;OpenSans-Semibold&apos;" font-size="14"/><tspan x="175.8" y="0" fill="#4aa6dd" font-family="&apos;OpenSans-Semibold&apos;" font-size="14">About</tspan><tspan x="216.7" y="0" fill="#6f7070" font-family="&apos;OpenSans-Semibold&apos;" font-size="14"/></text><text transform="translate(2366.18 367.42)" fill="#4aa6dd" font-family="&apos;Adelle-SemiBold&apos;" font-size="14">Request a demo</text><text transform="translate(2211.61 367.48)" fill="#969696" font-family="&apos;OpenSans-Semibold&apos;" font-size="13">Login     Contact       </text><g clip-path="url(#D)"><text transform="translate(1679.04 643.89)"><tspan x="0" y="0" fill="#f26322" font-family="&apos;MarketOT&apos;" font-size="24">Jane Tindler, </tspan><tspan x="115.9" y="0" fill="#f26322" font-family="&apos;OpenSans&apos;" font-size="14">Four Seasons Social Media Manager</tspan><tspan x="350.3" y="0" fill="#f26322" font-family="&apos;OpenSans&apos;" font-size="16"/><tspan x="362.7" y="0" fill="#f26322" font-family="&apos;ProximaNova-Semibold&apos;" font-size="24"/></text><text transform="translate(1438.85 522.19)"><tspan x="0" y="0" fill="#f26423" font-family="&apos;Adelle-SemiBold&apos;" font-size="47">Spredfast helped us increase social </tspan><tspan x="-73.5" y="56.4" fill="#f26423" font-family="&apos;Adelle-SemiBold&apos;" font-size="47">engagement and leverage social in a fresh </tspan></text><text transform="translate(1404.57 511.94)" fill="#f26322" font-family="&apos;Adelle-SemiBold&apos;" font-size="50">“</text><text transform="matrix(.9344 0 0 1 1714.03 1147.46)" fill="#fff" font-family="&apos;Adelle-SemiBoldItalic&apos;" font-size="23.545">Play the Four Seasons Story</text></g><text transform="translate(1276.36 291.75)" font-family="&apos;Helvetica&apos;" font-size="14">Navigation - Open Option 1</text><path transform="matrix(.7071.7071-.7071.7071 620.8-774.71)" fill="#fff" d="m1233.4 360.5h24.2v3h-24.2z" id="2"/><use transform="matrix(0-1 1 0 883.53 1607.57)" xlink:href="#2"/><text transform="translate(1936.9 501.22)"><tspan x="0" y="0" fill="#fff" font-family="&apos;OpenSans-Semibold&apos;" font-size="20">Customers</tspan><tspan x="0" y="20.4" opacity=".7" fill="#fff" font-family="&apos;OpenSans-Italic&apos;" font-size="12">Pioneering brands and media companies  </tspan><tspan x="0" y="36.8" opacity=".7" fill="#fff" font-family="&apos;OpenSans-Italic&apos;" font-size="12">alike use Spredfast to amplify and streamline  </tspan><tspan x="0" y="53.2" opacity=".7" fill="#fff" font-family="&apos;OpenSans-Italic&apos;" font-size="12">their social media marketing strategies.</tspan></text><text transform="translate(1301.9 503.22)"><tspan x="0" y="0" fill="#fff" font-family="&apos;Adelle-SemiBold&apos;" font-size="32">Conversations </tspan><tspan x="0" y="22.4" opacity=".7" fill="#fff" font-family="&apos;OpenSans-Italic&apos;" font-size="12">Plan and manage social content and campaigns  </tspan><tspan x="0" y="38.8" opacity=".7" fill="#fff" font-family="&apos;OpenSans-Italic&apos;" font-size="12">across teams.</tspan></text><text transform="translate(1301.9 451.22)" fill="#fff" font-family="&apos;OpenSans&apos;" font-size="14">SPREDFAST PLATFORM</text><text transform="translate(1301.9 604.22)"><tspan x="0" y="0" fill="#fff" font-family="&apos;Adelle-SemiBold&apos;" font-size="32">Experiences </tspan><tspan x="0" y="22.4" opacity=".7" fill="#fff" font-family="&apos;OpenSans-Italic&apos;" font-size="12">Create and curate visualizations that let your  </tspan><tspan x="0" y="38.8" opacity=".7" fill="#fff" font-family="&apos;OpenSans-Italic&apos;" font-size="12">customers share back with you on any screen. </tspan></text><text transform="translate(1606.9 504.22)"><tspan x="0" y="0" fill="#fff" font-family="&apos;Adelle-SemiBold&apos;" font-size="32">Intelligence </tspan><tspan x="0" y="22.4" opacity=".7" fill="#fff" font-family="&apos;OpenSans-Italic&apos;" font-size="12">Mine social conversation across channels for  </tspan><tspan x="0" y="38.8" opacity=".7" fill="#fff" font-family="&apos;OpenSans-Italic&apos;" font-size="12">who is talking and what they’re saying.</tspan></text><text transform="translate(1606.9 605.22)"><tspan x="0" y="0" fill="#fff" font-family="&apos;Adelle-SemiBold&apos;" font-size="32">Promotions </tspan><tspan x="0" y="22.4" opacity=".7" fill="#fff" font-family="&apos;OpenSans-Italic&apos;" font-size="12">Build custom social campaigns that collect  </tspan><tspan x="0" y="38.8" opacity=".7" fill="#fff" font-family="&apos;OpenSans-Italic&apos;" font-size="12">unique customer data.</tspan></text><text transform="translate(1937.9 615.22)"><tspan x="0" y="0" fill="#fff" font-family="&apos;OpenSans-Semibold&apos;" font-size="20">About</tspan><tspan x="0" y="20.4" opacity=".7" fill="#fff" font-family="&apos;OpenSans-Italic&apos;" font-size="12">Spredfast is a software platform that helps  </tspan><tspan x="0" y="36.8" opacity=".7" fill="#fff" font-family="&apos;OpenSans-Italic&apos;" font-size="12">enterprise companies amplify and streamline  </tspan><tspan x="0" y="53.2" opacity=".7" fill="#fff" font-family="&apos;OpenSans-Italic&apos;" font-size="12">their social media marketing strategies. </tspan></text><text transform="translate(1936.9 727.22)"><tspan x="0" y="0" fill="#fff" font-family="&apos;OpenSans-Semibold&apos;" font-size="20">Resources</tspan><tspan x="0" y="20.4" opacity=".7" fill="#fff" font-family="&apos;OpenSans-Italic&apos;" font-size="12">Explore our thought leadership to help  </tspan><tspan x="0" y="36.8" opacity=".7" fill="#fff" font-family="&apos;OpenSans-Italic&apos;" font-size="12">drive your strategy.</tspan></text><text transform="translate(2236.4 504.27)"><tspan x="0" y="0" fill="#fff" font-family="&apos;OpenSans-Semibold&apos;" font-size="14">Blog</tspan><tspan x="0" y="33" fill="#fff" font-family="&apos;OpenSans-Semibold&apos;" font-size="14">News/Press</tspan><tspan x="0" y="66" fill="#fff" font-family="&apos;OpenSans-Semibold&apos;" font-size="14">Solutions</tspan><tspan x="0" y="99" fill="#fff" font-family="&apos;OpenSans-Semibold&apos;" font-size="14">Careers</tspan><tspan x="0" y="132" fill="#fff" font-family="&apos;OpenSans-Semibold&apos;" font-size="14">Contact</tspan></text><text transform="translate(1301.9 727.22)"><tspan x="0" y="0" fill="#fff" font-family="&apos;Adelle-Regular&apos;" font-size="20">Partners </tspan><tspan x="0" y="20.4" opacity=".7" fill="#fff" font-family="&apos;OpenSans-Italic&apos;" font-size="12">All the major social channels and top marketing  </tspan><tspan x="0" y="36.8" opacity=".7" fill="#fff" font-family="&apos;OpenSans-Italic&apos;" font-size="12">technologies integrate and partner with us,  </tspan><tspan x="0" y="53.2" opacity=".7" fill="#fff" font-family="&apos;OpenSans-Italic&apos;" font-size="12">building a cohesive, powerful ecosystem.</tspan></text><text transform="translate(1605.9 727.22)"><tspan x="0" y="0" fill="#fff" font-family="&apos;Adelle-Regular&apos;" font-size="20">Customer Success </tspan><tspan x="0" y="20.4" opacity=".7" fill="#fff" font-family="&apos;OpenSans-Italic&apos;" font-size="12">Partner with Spredfast to customize and  </tspan><tspan x="0" y="36.8" opacity=".7" fill="#fff" font-family="&apos;OpenSans-Italic&apos;" font-size="12">strategize your social marketing efforts.</tspan></text><g clip-path="url(#G)"><text transform="translate(188.08-225.05)" fill="#4aa6dd" font-family="&apos;OpenSans-Semibold&apos;" font-size="14">Platform      Customers</text></g><g clip-path="url(#G)"><text transform="translate(342.03-225.05)" fill="#6f7070" font-family="&apos;OpenSans-Semibold&apos;" font-size="14"/></g><g clip-path="url(#G)"><text transform="translate(363.85-225.05)" fill="#4aa6dd" font-family="&apos;OpenSans-Semibold&apos;" font-size="14">About</text></g><g clip-path="url(#G)"><text transform="translate(404.77-225.05)" fill="#6f7070" font-family="&apos;OpenSans-Semibold&apos;" font-size="14"/></g><g clip-path="url(#G)"><text transform="translate(1090.51-225.5)"><tspan x="0" y="0" fill="#4aa6dd" font-family="&apos;Adelle-SemiBoldItalic&apos;" font-size="14">Get in </tspan><tspan x="41.6" y="0" fill="#4aa6dd" font-family="&apos;Adelle-SemiBoldItalic&apos;" font-size="14">t</tspan><tspan x="47" y="0" fill="#4aa6dd" font-family="&apos;Adelle-SemiBoldItalic&apos;" font-size="14">ou</tspan><tspan x="63.5" y="0" fill="#4aa6dd" font-family="&apos;Adelle-SemiBoldItalic&apos;" font-size="14">c</tspan><tspan x="70.3" y="0" fill="#4aa6dd" font-family="&apos;Adelle-SemiBoldItalic&apos;" font-size="14">h</tspan></text></g><g clip-path="url(#G)"><text transform="translate(936.61-225.52)"><tspan x="0" y="0" fill="#969696" font-family="&apos;OpenSans-Semibold&apos;" font-size="13">Login     C</tspan><tspan x="59.2" y="0" fill="#969696" font-family="&apos;OpenSans-Semibold&apos;" font-size="13">o</tspan><tspan x="67.1" y="0" fill="#969696" font-family="&apos;OpenSans-Semibold&apos;" font-size="13">ntact</tspan></text></g><g clip-path="url(#G)"><text transform="translate(1036.22-225.52)" fill="#969696" font-family="&apos;OpenSans-Semibold&apos;" font-size="13"/></g><text transform="translate(1077.33 21.371)" fill="#f26322" font-family="&apos;Adelle-SemiBoldItalic&apos;" font-size="14">Get in touch</text></svg>